<svg id="Capa_1" enable-background="new 0 0 512 512" height="512" viewBox="0 0 512 512" width="512" xmlns="http://www.w3.org/2000/svg"><g><path d="m481.251 280.748c-5.859-5.857-15.357-5.854-21.213.006-5.856 5.859-5.854 15.357.006 21.213 14.158 14.15 21.956 32.981 21.956 53.023 0 20.044-7.807 38.881-21.982 53.04-5.861 5.854-5.866 15.352-.012 21.213 2.93 2.933 6.771 4.399 10.612 4.399 3.836 0 7.673-1.463 10.601-4.388 19.849-19.825 30.781-46.2 30.781-74.264 0-28.058-10.92-54.425-30.749-74.242z"/><path d="m417.606 323.171c-5.858 5.857-5.858 15.355 0 21.213 2.833 2.833 4.394 6.6 4.394 10.606s-1.561 7.773-4.394 10.606c-5.858 5.857-5.858 15.355 0 21.213 2.929 2.929 6.768 4.394 10.606 4.394s7.678-1.465 10.606-4.394c17.546-17.545 17.546-46.094 0-63.639-5.856-5.857-15.354-5.857-21.212.001z"/><path d="m370 210.458v-15.458c0-102.01-82.99-185-185-185s-185 82.99-185 185v23.977c0 56.079 26.024 109.157 70 143.534v124.489c0 8.284 6.716 15 15 15h180c8.284 0 15-6.716 15-15v-47h45c24.813 0 45-20.187 45-45v-20c0-5.172-2.664-9.979-7.05-12.72l-19.648-12.28 19.648-12.28c4.386-2.741 7.05-7.548 7.05-12.72v-28.288l28.638-7.16c4.732-1.183 8.594-4.593 10.354-9.143 1.759-4.55 1.195-9.671-1.511-13.729zm-18.638 59.99c-6.677 1.669-11.362 7.669-11.362 14.552v31.687l-32.95 20.594c-4.386 2.741-7.05 7.548-7.05 12.72s2.664 9.979 7.05 12.72l32.95 20.592v11.687c0 8.271-6.729 15-15 15h-60c-8.284 0-15 6.716-15 15v47h-150v-117c0-4.844-2.34-9.391-6.281-12.206-39.899-28.499-63.719-74.786-63.719-123.817v-23.977c0-85.468 69.532-155 155-155s155 69.532 155 155v20c0 2.961.877 5.856 2.52 8.32l28.192 42.29z"/><path d="m175.403 279.73c-6.864-4.641-16.188-2.84-20.829 4.022-2.866 4.238-6.323 6.645-10.275 7.151-4.974.634-10.837-1.757-16.51-6.742-16.69-14.667-24.775-44.84-17.655-65.888 2.421-7.154 6.302-12.16 10.928-14.095 3.677-1.535 7.874-1.181 12.474 1.057 7.452 3.62 16.427.519 20.05-6.931 3.622-7.45.52-16.427-6.931-20.05-12.331-5.996-25.53-6.619-37.164-1.754-12.689 5.305-22.553 16.726-27.774 32.159-10.959 32.397.58 75.46 26.269 98.036 10.628 9.339 22.773 14.308 34.721 14.308 1.811 0 3.616-.114 5.411-.345 12.509-1.604 23.628-8.743 31.31-20.101 4.638-6.86 2.838-16.185-4.025-20.827z"/></g></svg>